<svg width="186" height="145" viewBox="0 0 186 145" fill="none" xmlns="http://www.w3.org/2000/svg">
<path d="M85.2373 101.211V103.479L82.7305 107.3L79.0293 111L75.0898 108.374L82.7305 98.9434L85.2373 101.211ZM89.6543 47.251L76.7617 53.2197L66.2559 67.1875C65.8181 67.7049 65.2054 68.9067 66.2559 69.5752C67.5691 70.4109 71.0313 72.7977 74.4932 73.3945C77.9552 73.9914 80.9397 71.7239 85.7148 67.1875H94.3105L123.081 92.376C122.723 92.8137 121.696 93.9997 120.454 95.2412C119.213 96.4825 118.186 97.0319 117.828 97.1514L97.2949 79.4834L98.0107 85.8105L113.889 100.017L111.023 102.046L108.396 103.001L90.7285 87.3623L91.2061 93.4512L103.383 105.389L98.0107 107.776L89.1768 100.017L86.9082 96.5547L83.5664 93.9287L81.6562 89.3916L76.2842 86.5264L73.7764 82.8262L68.5244 80.5576L66.2559 82.1094L63.749 79.125L59.0928 77.8125L54.5566 82.1094L49.0654 77.8125L39.9922 80.6768L47.2744 55.3691L59.9287 57.6367L73.2988 48.6836L86.5508 45.8184L89.6543 47.251ZM78.9102 92.9736L79.5068 96.0771L70.792 106.344L66.4951 103.24L76.6416 91.6602L78.9102 92.9736ZM71.3896 87.3633L73.0605 89.3926L63.1523 100.614L59.332 96.4355L69.1211 86.0498L71.3896 87.3633ZM62.3164 83.9004L63.9873 85.5723L56.5859 93.0928L53.124 88.7949L59.8096 82.707L62.3164 83.9004ZM152.567 88.1982L158.298 81.5127L174.652 78.1709L152.567 88.1982ZM112.934 53.2197L122.364 59.5469L133.108 57.3984L139.555 78.8867L127.378 82.2295L126.662 84.6162L121.29 78.6475L126.423 75.4248L112.934 73.3945L95.1455 59.0693C92.1211 59.6265 85.7148 60.884 84.2822 61.457C81.656 65.6351 78.5523 69.0973 77.3584 69.0977C75.3529 69.3842 72.6231 68.3413 71.5088 67.7842L79.9844 55.7266L97.2949 48.2061L112.934 53.2197ZM22.2051 78.1699L15.5195 80.6768L6.68555 76.6182L22.2051 78.1699ZM154.597 59.666L141.704 65.0381L137.287 55.3691L185.636 34.1191L154.597 59.666ZM43.0957 52.3848L40.2314 60.6221L25.3086 55.7266L0 34L43.0957 52.3848Z" fill="white"/>
</svg>
