<svg width="145" height="145" viewBox="0 0 145 145" fill="none" xmlns="http://www.w3.org/2000/svg">
<path d="M31.168 23C34.0222 23 36.3367 25.3137 36.3369 28.168C36.3369 29.7558 35.62 31.1759 34.4932 32.124L44.0107 123L37.9814 119.397L28.9834 32.8525C27.2213 32.0292 26 30.2414 26 28.168C26.0002 25.3139 28.3139 23.0002 31.168 23Z" fill="white"/>
<path d="M62.8047 29.7344L79.4844 34.3545L82.0703 53.4678L83.5566 42.1074H89.2734L98.0439 41.3242L114.802 34.5117L111.826 42.5771L103.995 58.8652L118.796 75.1543L103.995 81.7314L92.7969 84.707L79.4062 82.8281L88.0986 76.6416L86.376 69.4375L83.374 63.1045L84.8877 74.292L73.7686 71.4727H61.5518L54.583 72.9609L43.0713 78.834L37.8242 35.3721L49.4922 30.2041L55.6006 28.9512L62.8047 29.7344Z" fill="white"/>
<path d="M82.3818 76.7979L77.292 80.7129L76.8223 75.3887L82.3818 76.7979Z" fill="white"/>
</svg>
