<svg width="145" height="145" viewBox="0 0 145 145" fill="none" xmlns="http://www.w3.org/2000/svg">
<path d="M62.4043 72.0918L64.7344 74.1885C65.317 76.4123 67.6853 80.8214 72.5 80.6689C77.3145 80.5165 79.4247 76.7939 79.8779 74.9512L82.5957 73.4258L83.5664 70.1855L84.1484 65.6113L94.291 70.1855L99.5908 82.1289L96.9404 96.9668L92.8857 108.308L91.7207 113.835L95.7979 131.181L77.1592 133.658L63.375 131.942L61.2393 125.271L65.3164 128.131L71.1406 119.362L75.6064 115.932L77.1592 108.308L83.5664 106.02L87.2549 99.3486V92.4863L82.5957 89.2461L78.9072 90.3896L75.6064 93.7871L75.9951 95.3457L79.8779 92.4863H82.5957L84.3428 95.3457L82.9844 101.255C81.69 102.843 78.7514 105.944 77.3535 105.639C75.9558 105.334 75.8657 105.003 75.9951 104.876L74.8301 105.639L72.5 113.835L68.2285 117.647L52.8906 123.938L46.29 123.175L45.5137 119.362L47.0664 117.075L44.7363 113.835V112.691L45.5137 112.119V111.548L44.3486 111.357L43.96 110.595L44.543 109.069L44.7363 105.639L42.7949 104.686L39.71 102.796V100.699L44.1543 92.6777L46.29 89.6279L44.7363 84.6719L47.6582 78.9492L45.5137 72.0918L48.1885 69.4111L56.1367 63.0518L61.2393 61.9922L62.4043 72.0918Z" fill="white"/>
<path d="M76.5771 74.7607C76.1888 75.8409 75.4118 77.8096 72.5 77.8096C69.5881 77.8096 69.0699 75.7139 68.4229 74.7607H76.5771Z" fill="white"/>
<path d="M80.2656 70.376L78.1299 71.7109H68.2285L64.7344 70.9482L64.3457 65.0391H80.6543L80.2656 70.376Z" fill="white"/>
<path d="M97.9336 61.7988L100.846 65.6113L98.71 67.5176L95.7979 65.0391L91.1387 60.4648L89.7793 58.3682L91.1387 56.8428H92.6914L97.9336 61.7988Z" fill="white"/>
<path d="M55.6094 58.749L49.3965 65.4199L46.4844 67.3262L44.3486 65.4199L50.1729 58.749L53.4736 56.4619L55.6094 58.749Z" fill="white"/>
<path d="M76.9658 45.7881L73.665 53.7939V61.9893H71.1406V53.7939L68.4229 45.7881L72.8887 45.4072L76.9658 45.7881Z" fill="white"/>
<path d="M64.3457 25.9648C65.6719 25.4295 77.0963 25.9619 77.1592 25.9648L86.0898 31.6826C86.0898 31.6826 88.9915 35.4963 89.5215 38.6758C90.0493 41.8426 88.0483 48.4035 88.0322 48.4561L82.207 57.2246L80.8486 61.7988H76.7715L77.1592 53.4121L80.6543 44.0723L79.6836 42.166L64.3457 42.5479V44.0723L68.2285 54.3652V61.6084L63.7627 61.7988L62.9863 57.2246L57.7266 49.8037C57.7151 49.7602 56.2797 44.2929 56.1367 40.2656C55.9936 36.2324 58.8945 31.7055 58.9092 31.6826C58.9092 31.6826 63.0157 26.5018 64.3457 25.9648Z" fill="white"/>
<path d="M48.4258 40.2598V42.9287L43.96 43.3096L36 42.9287V40.0693L41.8242 39.6885L48.4258 40.2598Z" fill="white"/>
<path d="M109 40.4502V42.7373L104.535 43.3096H99.875L96.7686 42.7373V40.0693L100.651 39.6885H107.447L109 40.4502Z" fill="white"/>
<path d="M100.069 17.7676L97.7393 21.1992L91.5264 26.7266L89.3906 24.249L92.4971 20.627L97.1572 16.2432H98.3223L100.069 17.7676Z" fill="white"/>
<path d="M54.4443 22.7246L55.8027 24.4395L53.668 26.5361L50.7549 24.4395L44.3486 18.1494L46.4844 16.0527L54.4443 22.7246Z" fill="white"/>
<path d="M74.2471 18.3398L73.665 20.2461H72.3057L70.7529 19.293L71.5293 9H73.665L74.2471 18.3398Z" fill="white"/>
</svg>
