<svg width="145" height="145" viewBox="0 0 145 145" fill="none" xmlns="http://www.w3.org/2000/svg">
<path d="M67.2363 62.9287C66.9751 63.3347 66.8547 64.6214 68.4326 66.5938C70.0209 68.5791 74.4552 72.7818 76.4736 74.6348L83.3232 68.877L84.2168 65.7998V63.7148L85.8047 66.5938L102.283 75.627L104.766 79.7969L107.941 93.8926L110.82 111.562L103.673 101.834L98.9082 85.4551L95.1357 95.7783L93.8457 101.834L86.4004 120L66.5469 111.562L58.7041 120L56.3223 96.5732L55.1309 92.2051L51.6562 85.4551L46.8916 102.529L39.8438 111.562L45.502 78.0098L48.083 74.6348L57.4141 69.5723L65.3555 65.7998L67.2363 62.9287ZM128.591 90.7168L124.322 101.735V98.2607L128.095 79.2012L128.591 90.7168ZM21.4785 59.4463L11.0557 67.9834L5 86.0498L7.2832 67.2881L9.56641 64.0127L20.7842 58.5527L21.4785 59.4463ZM130.079 64.2109L132.462 67.2881L134.546 78.208L132.462 71.457L128.59 66.3945L117.869 60.7363L121.642 58.6523L130.079 64.2109ZM115.388 28.2754L117.969 34.6289V43.8613L115.388 54.0859L112.509 57.1631H108.339L102.383 54.0859L107.743 64.2109L111.913 65.4023L105.56 72.4502L90.2725 63.8145L99.5039 59.0488L99.1074 48.7256L95.6328 46.3428L94.0449 42.2725L95.1367 40.1885L97.3203 41.1807L96.7246 39.3936L96.3271 31.0557L101.787 25.4961L109.432 25L115.388 28.2754ZM40.7373 59.4463L43.0205 57.7588L58.4072 64.6074L52.8477 67.2881L45.7998 64.6074H43.7148L32.6963 70.9609L36.9648 63.417H28.9238L39.9424 53.7881L40.7373 59.4463ZM86.2021 36.9121L86.4014 45.8467L87.5928 45.5488L88.6846 47.2363L87.5928 52.1006L85.5078 53.5898L84.2168 57.5605L77.7646 63.6152L73 63.417L67.3418 57.7588L65.9521 53.5898L64.0654 52.1006L63.1719 50.1152L62.6758 46.3428L63.5693 45.8467L66.1504 47.2363L64.8594 43.166L65.9521 36.2178L71.4111 31.4531H80.9414L86.2021 36.9121ZM39 30L39.8438 35.5L39 39L40.9355 37.4082L42.127 38.0039V41.7754L39.8438 43.5625V48.3271L36.0713 52.2979L27.7324 56.3682H22.5703L20.585 48.3271L19.8906 38.5996L20.585 31.6504L25.6475 26.3896H33.6885L39 30Z" fill="white"/>
</svg>
